<svg xmlns="http://www.w3.org/2000/svg" xmlns:xlink="http://www.w3.org/1999/xlink" width="141" height="23" viewBox="0 0 188.753 30.037">
  <path fill="#FFFFFF" d="M55.023 25.698H53.67l-3.095-8.692c-.256-.715-.562-1.61-.87-2.632h-.05c-.306 1-.613 1.85-.894 2.64l-3.22 8.69h-1.38l-5.85-16.92h2.02l3.76 11.25c.31.95.59 1.79.82 2.63h.05c.23-.82.56-1.66.9-2.58l2.92-7.98-1.15-3.32h1.97l3.86 11.15c.33.98.67 1.79.9 2.61h.05c.2-.84.43-1.61.74-2.53l3.68-11.22h1.97l-5.75 16.93zm14.63-1.253c-.948.97-2.277 1.51-3.837 1.51-1.508 0-2.812-.513-3.757-1.484-1.1-1.12-1.69-2.83-1.69-4.83 0-1.99.61-3.65 1.69-4.78.97-.99 2.27-1.56 3.78-1.56 1.56 0 2.86.57 3.83 1.56 1.07 1.13 1.68 2.79 1.68 4.78 0 2-.62 3.68-1.71 4.81m-3.81-9.56c-2.28 0-3.58 1.84-3.58 4.706 0 2.86 1.35 4.755 3.6 4.755s3.6-1.89 3.6-4.75c0-2.86-1.3-4.7-3.63-4.7m10.07 11.07c-1.49 0-2.12-.94-2.12-2.22V7.605h1.86v15.28c0 1.15.28 1.38.99 1.38.12 0 .33 0 .63-.076l.23 1.35c-.56.28-.997.41-1.61.41m7.054 0c-1.74 0-2.585-1.02-2.585-2.58v-8.19h-1.97V13.6h1.97v-2.66l1.86-.634v3.297h3.707l-.67 1.59H82.2v7.62c0 1.02.38 1.48 1.176 1.48.87 0 1.66-.48 2.145-.87l.59 1.33c-.89.67-2.07 1.21-3.19 1.21m5.94-5.98c0 2.3 1.33 4.35 4.01 4.35 1.024 0 2.15-.41 2.864-.87l.564 1.28c-.87.72-2.405 1.23-3.81 1.23-3.788 0-5.63-3.09-5.63-6.54 0-3.5 1.995-6.11 4.91-6.11 3.12 0 4.833 2.48 4.833 6.23v.44h-7.74zm2.94-5.08c-1.79 0-2.92 1.59-2.92 3.5h5.7c0-1.68-.945-3.5-2.785-3.5m13.03.59c-.257-.1-.64-.2-1.15-.2-.716 0-1.893.62-2.66 1.46v8.978h-1.86v-12.1h1.53l.256 1.38c1.66-1.51 2.58-1.69 3.45-1.69.537 0 .998.21 1.227.36l-.797 1.82zm67.15 4.5c0 2.3 1.326 4.35 4.01 4.35 1.02 0 2.15-.41 2.863-.87l.56 1.28c-.87.72-2.4 1.23-3.81 1.23-3.784 0-5.624-3.09-5.624-6.54 0-3.5 1.997-6.105 4.91-6.105 3.12 0 4.835 2.48 4.835 6.233v.44h-7.747zm2.95-5.09c-1.79 0-2.916 1.59-2.916 3.5h5.7c0-1.68-.948-3.5-2.787-3.5m13.03.59c-.254-.1-.64-.202-1.15-.202-.713 0-1.89.62-2.66 1.46v8.97h-1.864v-12.1h1.535l.258 1.38c1.663-1.51 2.583-1.69 3.45-1.69.537 0 1 .21 1.23.36l-.793 1.82zm-78.37 10.47c-1.736 0-2.783-.46-3.576-.92l.72-1.453c.564.35 1.61.87 2.94.87 1.484 0 2.56-.67 2.56-1.79 0-2.97-5.496-1.92-5.496-6.16 0-1.74 1.25-3.2 4.01-3.2 1.276 0 2.247.28 3.04.64v1.634c-.84-.356-1.71-.715-2.97-.715-1.223 0-2.244.43-2.244 1.53 0 2.71 5.6 2.02 5.6 5.98 0 2.53-2.097 3.58-4.58 3.58m21.12-.26l-6.726-7.617h-.01V25.7h-1.87V8.855h1.868V16.6h.02l6.26-7.695h2.33l-6.93 8.28 7.54 8.513m3.914.256c-1.483 0-2.12-.95-2.12-2.22V7.594h1.866v15.29c0 1.15.28 1.38.994 1.38.128 0 .334 0 .64-.075l.23 1.35c-.562.28-1 .41-1.61.41m11.55-.26l-.482-1.26c-.895.76-2.3 1.51-3.91 1.51-1.635 0-3.68-.85-3.68-4.25v-8.1h1.86v7.92c0 2.02.846 2.81 2.356 2.81 1.54 0 2.71-.98 3.22-1.61v-9.13h1.87v7.03c0 3.81.08 4.55.26 5.06h-1.48zm16.594 0h-1.69L160.54 16h-.08l-2.99 9.69h-1.63L151.8 13.6h1.9l2.963 9.53h.077l2.99-9.54h1.69l3.014 9.56h.077l2.92-9.56h1.81"/>
  <defs> q
    <path id="a" d="M82.887 59.158c-8.22.086-14.857 6.776-14.857 15.02 0 8.292 6.724 15.017 15.018 15.017s15.018-6.725 15.018-15.018c0-8.242-6.636-14.933-14.856-15.02h-.323z"/>
  </defs>
  <clipPath id="b">
    <use width="566.929" height="425.197" xlink:href="#a" overflow="visible"/>
  </clipPath>
  <path fill="#9acd6e" d="M78.042 79.18h10.01v10.014h-10.01z" clip-path="url(#b)" transform="translate(-68.03 -59.157)"/>
  <path fill="#cae3b2" d="M78.042 59.157h10.01V69.17h-10.01zM68.03 69.17h10.013v10.01H68.03z" clip-path="url(#b)" transform="translate(-68.03 -59.157)"/>
  <path fill="#429ed6" d="M68.03 79.18h10.013v10.014H68.03z" clip-path="url(#b)" transform="translate(-68.03 -59.157)"/>
  <path fill="#a0c4e6" d="M68.03 59.157h10.013V69.17H68.03z" clip-path="url(#b)" transform="translate(-68.03 -59.157)"/>
  <path fill="#9acd6e" d="M88.054 69.17h10.013v10.01H88.054z" clip-path="url(#b)" transform="translate(-68.03 -59.157)"/>
  <path fill="#007bc6" d="M88.054 79.18h10.013v10.014H88.054z" clip-path="url(#b)" transform="translate(-68.03 -59.157)"/>
  <path fill="#429ed6" d="M88.054 59.157h10.013V69.17H88.054z" clip-path="url(#b)" transform="translate(-68.03 -59.157)"/>
  <path fill="#ef3e42" d="M78.042 69.17h10.01v10.01h-10.01z" clip-path="url(#b)" transform="translate(-68.03 -59.157)"/>
</svg>
