<svg xmlns="http://www.w3.org/2000/svg" width="60" height="90" viewBox="0 0 33.114 49.705">
  <path d="M6.737 40.25h-.552l-1.243-3.504c-.102-.284-.223-.643-.347-1.053h-.02c-.127.4-.253.737-.368 1.053L2.914 40.25h-.56L0 33.432h.816l1.508 4.535c.126.38.24.72.336 1.07h.02c.094-.33.225-.67.356-1.04l1.172-3.21-.456-1.33h.792l1.548 4.49c.135.39.272.72.367 1.06h.02c.08-.34.17-.65.29-1.02l1.48-4.52h.79l-2.31 6.82zm5.89-.504c-.38.39-.917.61-1.546.61-.61 0-1.14-.21-1.51-.6-.45-.453-.69-1.14-.69-1.947 0-.8.25-1.48.69-1.93.38-.4.91-.63 1.51-.63.63 0 1.15.23 1.54.63.43.45.68 1.12.68 1.92 0 .8-.26 1.48-.7 1.93m-1.54-3.86c-.92 0-1.44.74-1.44 1.89s.54 1.91 1.44 1.91c.9 0 1.46-.76 1.46-1.92 0-1.15-.53-1.9-1.47-1.9m4.1 4.49c-.6 0-.86-.38-.86-.9v-6.5h.75v6.16c0 .46.11.55.4.55.05 0 .13 0 .25-.03l.1.54c-.22.12-.39.17-.64.17m2.84 0c-.69 0-1.04-.41-1.04-1.04v-3.28h-.78v-.64h.79V34.3l.748-.25v1.326h1.5l-.27.64H17.7v3.07c0 .414.16.593.49.593.34 0 .67-.19.86-.35l.24.53c-.36.26-.84.48-1.29.48m2.39-2.41c0 .92.54 1.74 1.62 1.74.4 0 .87-.16 1.16-.35l.22.51c-.34.28-.97.49-1.52.49-1.52 0-2.27-1.25-2.27-2.64 0-1.41.81-2.46 1.98-2.46 1.26 0 1.95.99 1.95 2.51v.18h-3.12zm1.18-2.05c-.71 0-1.17.64-1.17 1.41h2.3c0-.68-.38-1.41-1.12-1.41m5.26.24c-.1-.05-.26-.09-.47-.09-.27 0-.76.24-1.07.59v3.61h-.75v-4.87h.63l.09.55c.68-.61 1.04-.68 1.4-.68.22 0 .41.08.5.14l-.32.74zm-4.18 11.17c0 .92.546 1.75 1.63 1.75.4 0 .862-.17 1.14-.35l.23.51c-.34.29-.97.49-1.528.49-1.535 0-2.27-1.25-2.27-2.64 0-1.41.8-2.46 1.977-2.46 1.26 0 1.94 1 1.94 2.51v.17h-3.13zm1.19-2.05c-.718 0-1.18.64-1.18 1.41h2.304c0-.68-.39-1.41-1.126-1.41m5.25.23c-.1-.04-.26-.09-.47-.09-.3 0-.76.24-1.08.58v3.62h-.75v-4.87h.61l.1.55c.68-.608 1.04-.68 1.39-.68.22 0 .39.08.49.143l-.31.73zm-.36-5.14c-.69 0-1.12-.19-1.45-.37l.3-.59c.23.14.64.34 1.19.34.59 0 1.03-.27 1.03-.72 0-1.2-2.22-.78-2.22-2.49 0-.71.51-1.29 1.61-1.29.52 0 .9.11 1.23.26v.66c-.35-.15-.69-.3-1.2-.3-.49 0-.9.17-.9.62 0 1.09 2.26.81 2.26 2.41 0 1.02-.84 1.44-1.84 1.44M3.3 49.57h-.75v-6.78h.75v3.12h.01l2.53-3.1h.94l-2.8 3.33 3.03 3.43h-1L3.3 46.51h-.01m5.3 3.17c-.6 0-.85-.39-.85-.9v-6.49h.75v6.16c0 .46.12.55.4.55.05 0 .13 0 .25-.03l.09.54c-.23.11-.4.168-.64.168m4.65-.107l-.2-.51c-.35.31-.93.61-1.57.61-.66 0-1.49-.34-1.49-1.71v-3.23h.75v3.19c0 .815.334 1.135.95 1.135.614 0 1.088-.39 1.288-.65v-3.67h.76v2.83c0 1.53.03 1.83.1 2.04h-.59zM18 45.66l-1.21 3.903h-.638l-1.62-4.87h.758l1.198 3.84h.033l1.19-3.84h.68l1.2 3.85h.03l1.17-3.85h.73l-1.61 4.87h-.68l-1.22-3.905m12.35-22.24h.68c.14 0 .26.02.35.05.29.085.43.303.43.553 0 .35-.26.53-.51.59v.01c.15.07.38.51.65.99h-.52c-.28-.53-.46-.87-.55-.88h-.08v.87h-.44v-2.2zm.55.973c.23 0 .43-.1.43-.32 0-.14-.06-.24-.18-.27-.06-.03-.14-.04-.24-.04h-.12v.62h.11z" fill="#FFFFFF"/>
  <path d="M18.892.426C17.752.152 16.572 0 15.35 0c-1.224 0-2.407.152-3.544.427v3.97h7.086V.427z" fill="#a0c4e6"/>
  <path d="M11.806 11.48h7.086v7.086h-7.086z" fill="#ef3e42"/>
  <path d="M11.806 18.566h7.086v7.087h-7.086z" fill="#9acd6e"/>
  <path d="M11.806 29.62c1.137.275 2.32.427 3.543.427 1.22 0 2.4-.15 3.54-.42v-3.97H11.8v3.97z" fill="#429ed6"/>
  <path d="M11.806 4.393h7.086v7.087h-7.086zM4.72 11.48h7.087v7.086H4.72z" fill="#cae3b2"/>
  <path d="M4.72 18.566h7.087v7.087H4.72z" fill="#7ac143"/>
  <path d="M4.72 25.653c1.92 1.92 4.36 3.306 7.087 3.967v-3.967H4.72z" fill="#007bc6"/>
  <path d="M4.72 4.393h7.087v7.087H4.72z" fill="#9acd6e"/>
  <path d="M11.806.426c-2.727.66-5.168 2.048-7.087 3.967h7.08V.426z" fill="#429ed6"/>
  <path d="M4.72 25.653v-7.087H.752c.662 2.726 2.048 5.17 3.968 7.087z" fill="#007bc6"/>
  <path d="M4.72 4.393C2.8 6.313 1.414 8.753.753 11.48h3.97V4.393z" fill="#429ed6"/>
  <path d="M18.892 11.48h7.087v7.086h-7.09z" fill="#9acd6e"/>
  <path d="M18.892 18.566h7.087v7.087h-7.09z" fill="#7ac143"/>
  <path d="M25.98 25.653h-7.09v3.967c2.726-.66 5.17-2.047 7.087-3.967z" fill="#007bc6"/>
  <path d="M18.892 4.393h7.087v7.087h-7.09z" fill="#7ac143"/>
  <path d="M18.892.426v3.967h7.087c-1.92-1.92-4.36-3.307-7.09-3.966zm7.087 25.227c1.92-1.918 3.3-4.36 3.96-7.087h-3.96v7.087zm0-21.26v7.087h3.96c-.66-2.726-2.05-5.168-3.97-7.087z" fill="#007bc6"/>
  <path d="M.752 11.48C.48 12.62.326 13.8.326 15.023c0 1.223.152 2.405.427 3.543h3.97V11.48H.753z" fill="#a0c4e6"/>
  <path d="M29.945 18.566c.275-1.138.428-2.32.428-3.543 0-1.223-.15-2.404-.42-3.543h-3.97v7.086h3.97z" fill="#429ed6"/>
  <path d="M33.114 24.583c0 1.127-.914 2.04-2.04 2.04-1.13 0-2.042-.913-2.042-2.04s.913-2.04 2.04-2.04c1.128 0 2.042.912 2.042 2.04zm-2.042-1.612c-.89 0-1.61.73-1.61 1.61 0 .89.72 1.62 1.61 1.62.89 0 1.612-.72 1.612-1.61s-.72-1.61-1.612-1.61z" fill="#FFFFFF"/>
</svg>
