<svg xmlns="http://www.w3.org/2000/svg" width="36.17" height="30.048" viewBox="0 0 36.169997 30.047999">
  <path d="M18.566.427C17.426.153 16.246 0 15.023 0 13.8 0 12.617.152 11.48.428v3.97h7.086V.428z" fill="#a0c4e6"/>
  <path d="M11.48 11.48h7.086v7.088H11.48z" fill="#ef3e42"/>
  <path d="M11.48 18.567h7.086v7.087H11.48z" fill="#9acd6e"/>
  <path d="M11.48 29.62c1.137.275 2.32.428 3.543.428 1.223 0 2.403-.15 3.543-.42v-3.97H11.48v3.967z" fill="#429ed6"/>
  <path d="M11.48 4.394h7.086v7.087H11.48zM4.394 11.48h7.087v7.088H4.398z" fill="#cae3b2"/>
  <path d="M4.394 18.567h7.087v7.087H4.398z" fill="#7ac143"/>
  <path d="M4.394 25.654c1.92 1.92 4.36 3.307 7.087 3.967v-3.963H4.398z" fill="#007bc6"/>
  <path d="M4.394 4.394h7.087v7.087H4.398z" fill="#9acd6e"/>
  <path d="M11.48.427c-2.727.66-5.168 2.048-7.087 3.967h7.087V.427z" fill="#429ed6"/>
  <path d="M4.394 25.654v-7.087H.426c.662 2.725 2.048 5.17 3.968 7.087z" fill="#007bc6"/>
  <path d="M4.394 4.394c-1.92 1.92-3.306 4.36-3.967 7.087h3.97V4.398z" fill="#429ed6"/>
  <path d="M18.566 11.48h7.087v7.088h-7.087z" fill="#9acd6e"/>
  <path d="M18.566 18.567h7.087v7.087h-7.087z" fill="#7ac143"/>
  <path d="M25.653 25.654h-7.087v3.967c2.726-.66 5.17-2.043 7.087-3.963z" fill="#007bc6"/>
  <path d="M18.566 4.394h7.087v7.087h-7.087z" fill="#7ac143"/>
  <path d="M18.566.427v3.967h7.087c-1.918-1.92-4.36-3.307-7.087-3.966zm7.087 25.227c1.92-1.918 3.305-4.36 3.966-7.087h-3.97v7.087zm0-21.26v7.087h3.966c-.66-2.722-2.05-5.164-3.97-7.083z" fill="#007bc6"/>
  <path d="M.426 11.48C.153 12.62 0 13.8 0 15.025c0 1.223.152 2.405.427 3.543h3.97V11.48H.427z" fill="#a0c4e6"/>
  <path d="M29.62 18.567c.274-1.138.427-2.32.427-3.543 0-1.223-.15-2.403-.42-3.543h-3.97v7.09h3.966z" fill="#429ed6"/>
  <path d="M32.06 22.35h1.02c.21 0 .393.024.525.077.43.127.64.453.64.828 0 .53-.4.806-.78.895v.016c.224.11.572.76.966 1.48h-.77c-.43-.785-.683-1.305-.83-1.316h-.11v1.316h-.664v-3.3zm.83 1.46c.34 0 .643-.136.643-.477 0-.203-.087-.356-.267-.402-.1-.04-.208-.05-.362-.05h-.178v.93h.162z" fill="#474747"/>
  <path d="M36.17 24.047c0 1.69-1.37 3.062-3.062 3.062-1.69 0-3.062-1.37-3.062-3.06 0-1.696 1.37-3.067 3.062-3.067 1.69 0 3.062 1.37 3.062 3.06zm-3.063-2.417c-1.33 0-2.41 1.083-2.41 2.418 0 1.34 1.084 2.42 2.418 2.42 1.336 0 2.42-1.08 2.42-2.412 0-1.332-1.084-2.417-2.42-2.417z" fill="#474747"/>
</svg>
