<svg width="24" height="24" viewBox="0 0 24 24" fill="none" xmlns="http://www.w3.org/2000/svg">
<g clip-path="url(#clip0_13_3382)">
<path d="M8.13182 17.8801C7.71364 16.9434 6.98182 16.1109 5.93636 15.6946L0.5 13.509L6.04091 11.2195C6.98182 10.8032 7.81818 10.0747 8.23636 9.03394L10.5364 3.5181L12.8364 9.03394C13.2545 9.97059 13.9864 10.8032 15.0318 11.2195L20.5727 13.509L15.0318 15.7986C14.0909 16.2149 13.2545 16.9434 12.8364 17.9842L10.5364 23.5L8.13182 17.8801ZM4.68182 13.509L6.66818 14.3416C8.02727 14.862 9.07273 16.0068 9.7 17.3597L10.5364 19.3371L11.3727 17.3597C11.8955 16.0068 13.0455 14.9661 14.4045 14.3416L16.3909 13.509L14.4045 12.6765C13.0455 12.1561 12 11.0113 11.3727 9.65837L10.5364 7.68099L9.7 9.65837C9.17727 11.0113 8.02727 12.052 6.66818 12.6765L4.68182 13.509ZM16.4955 4.45475L14.0909 5.18326L16.4955 5.91176C17.2273 6.11991 17.8545 6.74434 18.0636 7.47285L18.7955 9.86652L19.5273 7.47285C19.7364 6.74434 20.3636 6.11991 21.0955 5.91176L23.5 5.18326L21.0955 4.45475C20.3636 4.24661 19.7364 3.62217 19.5273 2.89367L18.7955 0.5L18.0636 2.89367C17.8545 3.62217 17.2273 4.24661 16.4955 4.45475Z" fill="#353535"/>
</g>
<defs>
<clipPath id="clip0_13_3382">
<rect width="24" height="24" fill="white"/>
</clipPath>
</defs>
</svg>
